<svg xmlns="http://www.w3.org/2000/svg" width="240" height="240" viewBox="0 0 240 240" fill="none">
  <!-- Nine weft threads, spread wide at the edges, each one smooth curve drawn together onto one shared warp -->
  <g stroke="#000000" stroke-width="5" stroke-linecap="round">
      <path d="M40.0 22.0C42.2 24.3 48.9 31.4 53.3 36.0C57.8 40.6 62.2 45.2 66.7 49.6C71.1 53.9 75.6 58.3 80.0 62.3C84.4 66.3 88.9 70.2 93.3 73.5C97.8 76.7 102.2 79.9 106.7 81.8C111.1 83.7 115.6 85.0 120.0 85.0C124.4 85.0 128.9 83.7 133.3 81.8C137.8 79.9 142.2 76.7 146.7 73.5C151.1 70.2 155.6 66.3 160.0 62.3C164.4 58.3 168.9 53.9 173.3 49.6C177.8 45.2 182.2 40.6 186.7 36.0C191.1 31.4 197.8 24.3 200.0 22.0"/>
      <path d="M40.0 46.5C42.2 48.3 48.9 53.6 53.3 57.0C57.8 60.5 62.2 63.9 66.7 67.2C71.1 70.4 75.6 73.7 80.0 76.7C84.4 79.7 88.9 82.7 93.3 85.1C97.8 87.5 102.2 89.9 106.7 91.3C111.1 92.8 115.6 93.8 120.0 93.8C124.4 93.8 128.9 92.8 133.3 91.3C137.8 89.9 142.2 87.5 146.7 85.1C151.1 82.7 155.6 79.7 160.0 76.7C164.4 73.7 168.9 70.4 173.3 67.2C177.8 63.9 182.2 60.5 186.7 57.0C191.1 53.6 197.8 48.3 200.0 46.5"/>
      <path d="M40.0 71.0C42.2 72.2 48.9 75.7 53.3 78.0C57.8 80.3 62.2 82.6 66.7 84.8C71.1 87.0 75.6 89.1 80.0 91.1C84.4 93.1 88.9 95.1 93.3 96.7C97.8 98.4 102.2 99.9 106.7 100.9C111.1 101.9 115.6 102.5 120.0 102.5C124.4 102.5 128.9 101.9 133.3 100.9C137.8 99.9 142.2 98.4 146.7 96.7C151.1 95.1 155.6 93.1 160.0 91.1C164.4 89.1 168.9 87.0 173.3 84.8C177.8 82.6 182.2 80.3 186.7 78.0C191.1 75.7 197.8 72.2 200.0 71.0"/>
      <path d="M40.0 95.5C42.2 96.1 48.9 97.9 53.3 99.0C57.8 100.2 62.2 101.3 66.7 102.4C71.1 103.5 75.6 104.6 80.0 105.6C84.4 106.6 88.9 107.6 93.3 108.4C97.8 109.2 102.2 110.0 106.7 110.4C111.1 110.9 115.6 111.2 120.0 111.2C124.4 111.2 128.9 110.9 133.3 110.4C137.8 110.0 142.2 109.2 146.7 108.4C151.1 107.6 155.6 106.6 160.0 105.6C164.4 104.6 168.9 103.5 173.3 102.4C177.8 101.3 182.2 100.2 186.7 99.0C191.1 97.9 197.8 96.1 200.0 95.5"/>
      <path d="M40.0 120.0C42.2 120.0 48.9 120.0 53.3 120.0C57.8 120.0 62.2 120.0 66.7 120.0C71.1 120.0 75.6 120.0 80.0 120.0C84.4 120.0 88.9 120.0 93.3 120.0C97.8 120.0 102.2 120.0 106.7 120.0C111.1 120.0 115.6 120.0 120.0 120.0C124.4 120.0 128.9 120.0 133.3 120.0C137.8 120.0 142.2 120.0 146.7 120.0C151.1 120.0 155.6 120.0 160.0 120.0C164.4 120.0 168.9 120.0 173.3 120.0C177.8 120.0 182.2 120.0 186.7 120.0C191.1 120.0 197.8 120.0 200.0 120.0"/>
      <path d="M40.0 144.5C42.2 143.9 48.9 142.1 53.3 141.0C57.8 139.8 62.2 138.7 66.7 137.6C71.1 136.5 75.6 135.4 80.0 134.4C84.4 133.4 88.9 132.4 93.3 131.6C97.8 130.8 102.2 130.0 106.7 129.6C111.1 129.1 115.6 128.8 120.0 128.8C124.4 128.8 128.9 129.1 133.3 129.6C137.8 130.0 142.2 130.8 146.7 131.6C151.1 132.4 155.6 133.4 160.0 134.4C164.4 135.4 168.9 136.5 173.3 137.6C177.8 138.7 182.2 139.8 186.7 141.0C191.1 142.1 197.8 143.9 200.0 144.5"/>
      <path d="M40.0 169.0C42.2 167.8 48.9 164.3 53.3 162.0C57.8 159.7 62.2 157.4 66.7 155.2C71.1 153.0 75.6 150.9 80.0 148.9C84.4 146.9 88.9 144.9 93.3 143.3C97.8 141.6 102.2 140.1 106.7 139.1C111.1 138.1 115.6 137.5 120.0 137.5C124.4 137.5 128.9 138.1 133.3 139.1C137.8 140.1 142.2 141.6 146.7 143.3C151.1 144.9 155.6 146.9 160.0 148.9C164.4 150.9 168.9 153.0 173.3 155.2C177.8 157.4 182.2 159.7 186.7 162.0C191.1 164.3 197.8 167.8 200.0 169.0"/>
      <path d="M40.0 193.5C42.2 191.7 48.9 186.4 53.3 183.0C57.8 179.5 62.2 176.1 66.7 172.8C71.1 169.6 75.6 166.3 80.0 163.3C84.4 160.3 88.9 157.3 93.3 154.9C97.8 152.5 102.2 150.1 106.7 148.7C111.1 147.2 115.6 146.2 120.0 146.2C124.4 146.2 128.9 147.2 133.3 148.7C137.8 150.1 142.2 152.5 146.7 154.9C151.1 157.3 155.6 160.3 160.0 163.3C164.4 166.3 168.9 169.6 173.3 172.8C177.8 176.1 182.2 179.5 186.7 183.0C191.1 186.4 197.8 191.7 200.0 193.5"/>
      <path d="M40.0 218.0C42.2 215.7 48.9 208.6 53.3 204.0C57.8 199.4 62.2 194.8 66.7 190.4C71.1 186.1 75.6 181.7 80.0 177.7C84.4 173.7 88.9 169.8 93.3 166.5C97.8 163.3 102.2 160.1 106.7 158.2C111.1 156.3 115.6 155.0 120.0 155.0C124.4 155.0 128.9 156.3 133.3 158.2C137.8 160.1 142.2 163.3 146.7 166.5C151.1 169.8 155.6 173.7 160.0 177.7C164.4 181.7 168.9 186.1 173.3 190.4C177.8 194.8 182.2 199.4 186.7 204.0C191.1 208.6 197.8 215.7 200.0 218.0"/>
      <path d="M120 85V155"/>
  </g>
</svg>
