<svg xmlns="http://www.w3.org/2000/svg" width="240" height="240" viewBox="0 0 240 240" fill="none">
  <!-- Card variant: same card as the LibreServ mark, seventeen heavier threads -->
  <!-- Border: solid gray rect underneath -->
  <rect x="0" y="0" width="240" height="240" rx="32" fill="#767676"/>
  <!-- Inner white rect inset by 2px creates a crisp, uniform border -->
  <rect x="2" y="2" width="236" height="236" rx="30" fill="#ffffff"/>
  <!-- Threads scaled to 75% and centered inside the card -->
  <g transform="translate(30, 30) scale(0.75)" stroke="#000000" stroke-width="3.5" stroke-linecap="round">
    <path d="M22.0 40.0C24.1 42.2 30.4 48.9 34.5 53.3C38.5 57.8 42.6 62.2 46.5 66.7C50.4 71.1 54.3 75.6 57.8 80.0C61.3 84.4 64.9 88.9 67.8 93.3C70.6 97.8 73.4 102.2 75.1 106.7C76.8 111.1 78.0 115.6 78.0 120.0C78.0 124.4 76.8 128.9 75.1 133.3C73.4 137.8 70.6 142.2 67.8 146.7C64.9 151.1 61.3 155.6 57.8 160.0C54.3 164.4 50.4 168.9 46.5 173.3C42.6 177.8 38.5 182.2 34.5 186.7C30.4 191.1 24.1 197.8 22.0 200.0"/>
    <path d="M34.2 40.0C36.1 42.2 41.6 48.9 45.2 53.3C48.7 57.8 52.3 62.2 55.7 66.7C59.1 71.1 62.5 75.6 65.6 80.0C68.7 84.4 71.8 88.9 74.3 93.3C76.8 97.8 79.3 102.2 80.7 106.7C82.2 111.1 83.2 115.6 83.2 120.0C83.2 124.4 82.2 128.9 80.7 133.3C79.3 137.8 76.8 142.2 74.3 146.7C71.8 151.1 68.7 155.6 65.6 160.0C62.5 164.4 59.1 168.9 55.7 173.3C52.3 177.8 48.7 182.2 45.2 186.7C41.6 191.1 36.1 197.8 34.2 200.0"/>
    <path d="M46.5 40.0C48.1 42.2 52.8 48.9 55.8 53.3C58.9 57.8 62.0 62.2 64.9 66.7C67.8 71.1 70.7 75.6 73.3 80.0C76.0 84.4 78.7 88.9 80.8 93.3C83.0 97.8 85.1 102.2 86.4 106.7C87.6 111.1 88.5 115.6 88.5 120.0C88.5 124.4 87.6 128.9 86.4 133.3C85.1 137.8 83.0 142.2 80.8 146.7C78.7 151.1 76.0 155.6 73.3 160.0C70.7 164.4 67.8 168.9 64.9 173.3C62.0 177.8 58.9 182.2 55.8 186.7C52.8 191.1 48.1 197.8 46.5 200.0"/>
    <path d="M58.8 40.0C60.0 42.2 64.0 48.9 66.5 53.3C69.1 57.8 71.6 62.2 74.1 66.7C76.5 71.1 78.9 75.6 81.1 80.0C83.3 84.4 85.5 88.9 87.3 93.3C89.2 97.8 90.9 102.2 92.0 106.7C93.0 111.1 93.8 115.6 93.8 120.0C93.8 124.4 93.0 128.9 92.0 133.3C90.9 137.8 89.2 142.2 87.3 146.7C85.5 151.1 83.3 155.6 81.1 160.0C78.9 164.4 76.5 168.9 74.1 173.3C71.6 177.8 69.1 182.2 66.5 186.7C64.0 191.1 60.0 197.8 58.8 200.0"/>
    <path d="M71.0 40.0C72.0 42.2 75.2 48.9 77.2 53.3C79.3 57.8 81.3 62.2 83.2 66.7C85.2 71.1 87.1 75.6 88.9 80.0C90.7 84.4 92.4 88.9 93.9 93.3C95.3 97.8 96.7 102.2 97.6 106.7C98.4 111.1 99.0 115.6 99.0 120.0C99.0 124.4 98.4 128.9 97.6 133.3C96.7 137.8 95.3 142.2 93.9 146.7C92.4 151.1 90.7 155.6 88.9 160.0C87.1 164.4 85.2 168.9 83.2 173.3C81.3 177.8 79.3 182.2 77.2 186.7C75.2 191.1 72.0 197.8 71.0 200.0"/>
    <path d="M83.2 40.0C84.0 42.2 86.4 48.9 87.9 53.3C89.5 57.8 91.0 62.2 92.4 66.7C93.9 71.1 95.3 75.6 96.7 80.0C98.0 84.4 99.3 88.9 100.4 93.3C101.5 97.8 102.5 102.2 103.2 106.7C103.8 111.1 104.2 115.6 104.2 120.0C104.2 124.4 103.8 128.9 103.2 133.3C102.5 137.8 101.5 142.2 100.4 146.7C99.3 151.1 98.0 155.6 96.7 160.0C95.3 164.4 93.9 168.9 92.4 173.3C91.0 177.8 89.5 182.2 87.9 186.7C86.4 191.1 84.0 197.8 83.2 200.0"/>
    <path d="M95.5 40.0C96.0 42.2 97.6 48.9 98.6 53.3C99.6 57.8 100.7 62.2 101.6 66.7C102.6 71.1 103.6 75.6 104.4 80.0C105.3 84.4 106.2 88.9 106.9 93.3C107.7 97.8 108.4 102.2 108.8 106.7C109.2 111.1 109.5 115.6 109.5 120.0C109.5 124.4 109.2 128.9 108.8 133.3C108.4 137.8 107.7 142.2 106.9 146.7C106.2 151.1 105.3 155.6 104.4 160.0C103.6 164.4 102.6 168.9 101.6 173.3C100.7 177.8 99.6 182.2 98.6 186.7C97.6 191.1 96.0 197.8 95.5 200.0"/>
    <path d="M107.8 40.0C108.0 42.2 108.8 48.9 109.3 53.3C109.8 57.8 110.3 62.2 110.8 66.7C111.3 71.1 111.8 75.6 112.2 80.0C112.7 84.4 113.1 88.9 113.5 93.3C113.8 97.8 114.2 102.2 114.4 106.7C114.6 111.1 114.8 115.6 114.8 120.0C114.8 124.4 114.6 128.9 114.4 133.3C114.2 137.8 113.8 142.2 113.5 146.7C113.1 151.1 112.7 155.6 112.2 160.0C111.8 164.4 111.3 168.9 110.8 173.3C110.3 177.8 109.8 182.2 109.3 186.7C108.8 191.1 108.0 197.8 107.8 200.0"/>
    <path d="M120.0 40.0C120.0 42.2 120.0 48.9 120.0 53.3C120.0 57.8 120.0 62.2 120.0 66.7C120.0 71.1 120.0 75.6 120.0 80.0C120.0 84.4 120.0 88.9 120.0 93.3C120.0 97.8 120.0 102.2 120.0 106.7C120.0 111.1 120.0 115.6 120.0 120.0C120.0 124.4 120.0 128.9 120.0 133.3C120.0 137.8 120.0 142.2 120.0 146.7C120.0 151.1 120.0 155.6 120.0 160.0C120.0 164.4 120.0 168.9 120.0 173.3C120.0 177.8 120.0 182.2 120.0 186.7C120.0 191.1 120.0 197.8 120.0 200.0"/>
    <path d="M132.2 40.0C132.0 42.2 131.2 48.9 130.7 53.3C130.2 57.8 129.7 62.2 129.2 66.7C128.7 71.1 128.2 75.6 127.8 80.0C127.3 84.4 126.9 88.9 126.5 93.3C126.2 97.8 125.8 102.2 125.6 106.7C125.4 111.1 125.2 115.6 125.2 120.0C125.2 124.4 125.4 128.9 125.6 133.3C125.8 137.8 126.2 142.2 126.5 146.7C126.9 151.1 127.3 155.6 127.8 160.0C128.2 164.4 128.7 168.9 129.2 173.3C129.7 177.8 130.2 182.2 130.7 186.7C131.2 191.1 132.0 197.8 132.2 200.0"/>
    <path d="M144.5 40.0C144.0 42.2 142.4 48.9 141.4 53.3C140.4 57.8 139.3 62.2 138.4 66.7C137.4 71.1 136.4 75.6 135.6 80.0C134.7 84.4 133.8 88.9 133.1 93.3C132.3 97.8 131.6 102.2 131.2 106.7C130.8 111.1 130.5 115.6 130.5 120.0C130.5 124.4 130.8 128.9 131.2 133.3C131.6 137.8 132.3 142.2 133.1 146.7C133.8 151.1 134.7 155.6 135.6 160.0C136.4 164.4 137.4 168.9 138.4 173.3C139.3 177.8 140.4 182.2 141.4 186.7C142.4 191.1 144.0 197.8 144.5 200.0"/>
    <path d="M156.8 40.0C156.0 42.2 153.6 48.9 152.1 53.3C150.5 57.8 149.0 62.2 147.6 66.7C146.1 71.1 144.7 75.6 143.3 80.0C142.0 84.4 140.7 88.9 139.6 93.3C138.5 97.8 137.5 102.2 136.8 106.7C136.2 111.1 135.8 115.6 135.8 120.0C135.8 124.4 136.2 128.9 136.8 133.3C137.5 137.8 138.5 142.2 139.6 146.7C140.7 151.1 142.0 155.6 143.3 160.0C144.7 164.4 146.1 168.9 147.6 173.3C149.0 177.8 150.5 182.2 152.1 186.7C153.6 191.1 156.0 197.8 156.8 200.0"/>
    <path d="M169.0 40.0C168.0 42.2 164.8 48.9 162.8 53.3C160.7 57.8 158.7 62.2 156.8 66.7C154.8 71.1 152.9 75.6 151.1 80.0C149.3 84.4 147.6 88.9 146.1 93.3C144.7 97.8 143.3 102.2 142.4 106.7C141.6 111.1 141.0 115.6 141.0 120.0C141.0 124.4 141.6 128.9 142.4 133.3C143.3 137.8 144.7 142.2 146.1 146.7C147.6 151.1 149.3 155.6 151.1 160.0C152.9 164.4 154.8 168.9 156.8 173.3C158.7 177.8 160.7 182.2 162.8 186.7C164.8 191.1 168.0 197.8 169.0 200.0"/>
    <path d="M181.2 40.0C180.0 42.2 176.0 48.9 173.5 53.3C170.9 57.8 168.4 62.2 165.9 66.7C163.5 71.1 161.1 75.6 158.9 80.0C156.7 84.4 154.5 88.9 152.7 93.3C150.8 97.8 149.1 102.2 148.0 106.7C147.0 111.1 146.2 115.6 146.2 120.0C146.2 124.4 147.0 128.9 148.0 133.3C149.1 137.8 150.8 142.2 152.7 146.7C154.5 151.1 156.7 155.6 158.9 160.0C161.1 164.4 163.5 168.9 165.9 173.3C168.4 177.8 170.9 182.2 173.5 186.7C176.0 191.1 180.0 197.8 181.2 200.0"/>
    <path d="M193.5 40.0C191.9 42.2 187.2 48.9 184.2 53.3C181.1 57.8 178.0 62.2 175.1 66.7C172.2 71.1 169.3 75.6 166.7 80.0C164.0 84.4 161.3 88.9 159.2 93.3C157.0 97.8 154.9 102.2 153.6 106.7C152.4 111.1 151.5 115.6 151.5 120.0C151.5 124.4 152.4 128.9 153.6 133.3C154.9 137.8 157.0 142.2 159.2 146.7C161.3 151.1 164.0 155.6 166.7 160.0C169.3 164.4 172.2 168.9 175.1 173.3C178.0 177.8 181.1 182.2 184.2 186.7C187.2 191.1 191.9 197.8 193.5 200.0"/>
    <path d="M205.8 40.0C203.9 42.2 198.4 48.9 194.8 53.3C191.3 57.8 187.7 62.2 184.3 66.7C180.9 71.1 177.5 75.6 174.4 80.0C171.3 84.4 168.2 88.9 165.7 93.3C163.2 97.8 160.7 102.2 159.3 106.7C157.8 111.1 156.8 115.6 156.8 120.0C156.8 124.4 157.8 128.9 159.3 133.3C160.7 137.8 163.2 142.2 165.7 146.7C168.2 151.1 171.3 155.6 174.4 160.0C177.5 164.4 180.9 168.9 184.3 173.3C187.7 177.8 191.3 182.2 194.8 186.7C198.4 191.1 203.9 197.8 205.8 200.0"/>
    <path d="M218.0 40.0C215.9 42.2 209.6 48.9 205.5 53.3C201.5 57.8 197.4 62.2 193.5 66.7C189.6 71.1 185.7 75.6 182.2 80.0C178.7 84.4 175.1 88.9 172.2 93.3C169.4 97.8 166.6 102.2 164.9 106.7C163.2 111.1 162.0 115.6 162.0 120.0C162.0 124.4 163.2 128.9 164.9 133.3C166.6 137.8 169.4 142.2 172.2 146.7C175.1 151.1 178.7 155.6 182.2 160.0C185.7 164.4 189.6 168.9 193.5 173.3C197.4 177.8 201.5 182.2 205.5 186.7C209.6 191.1 215.9 197.8 218.0 200.0"/>
    <path d="M78 120H162"/>
  </g>
</svg>
